<svg xmlns="http://www.w3.org/2000/svg" xmlns:xlink="http://www.w3.org/1999/xlink" fill="none" version="1.1" width="13.404579162597656" height="13.404571533203125" viewBox="0 0 13.404579162597656 13.404571533203125"><g><path d="M10.6873,9.74466L13.3069,12.3636C13.4371,12.4938,13.4371,12.7049,13.3069,12.8351L12.8351,13.3069C12.7049,13.4371,12.4938,13.4371,12.3636,13.3069L9.74469,10.6873C8.6825,11.5388,7.36133,12.0019,6,12C2.68799,12,0,9.31201,0,6C0,2.68799,2.68799,0,6,0C9.31201,0,12,2.68799,12,6C12.002,7.36133,11.5388,8.6825,10.6873,9.74466ZM10.6667,6C10.6667,3.42133,8.578,1.33334,6,1.33334C3.42133,1.33334,1.33331,3.42133,1.33331,6C1.33331,8.578,3.42133,10.6667,6,10.6667C7.21362,10.6686,8.37994,10.1961,9.25,9.35001L9.34998,9.25C10.1961,8.37991,10.6686,7.21362,10.6667,6ZM5.33331,3.66666L5.33331,5.33334L3.66669,5.33334C3.48254,5.33334,3.33331,5.48257,3.33331,5.66666L3.33331,6.33334C3.33331,6.51743,3.48254,6.66666,3.66669,6.66666L5.33331,6.66666L5.33331,8.33334C5.33331,8.51743,5.48254,8.66666,5.66669,8.66666L6.33331,8.66666C6.51746,8.66666,6.66669,8.51743,6.66669,8.33334L6.66669,6.66666L8.33331,6.66666C8.51746,6.66666,8.66669,6.51743,8.66669,6.33334L8.66669,5.66666C8.66669,5.48257,8.51746,5.33334,8.33331,5.33334L6.66669,5.33334L6.66669,3.66666C6.66669,3.48257,6.51746,3.33334,6.33331,3.33334L5.66669,3.33334C5.48254,3.33334,5.33331,3.48257,5.33331,3.66666Z" fill-rule="evenodd" fill="#465A80" fill-opacity="1"/></g></svg>