<svg xmlns="http://www.w3.org/2000/svg" xmlns:xlink="http://www.w3.org/1999/xlink" fill="none" version="1.1" width="13.404541015625" height="13.404571533203125" viewBox="0 0 13.404541015625 13.404571533203125"><g><path d="M13.3069,12.3636L10.6873,9.74466C11.5388,8.6825,12.0019,7.36133,11.9999,6C11.9999,2.68799,9.31195,0,5.99994,0C2.68805,0,0,2.68799,0,6C0,9.31201,2.68805,12,5.99994,12C7.36139,12.0019,8.68243,11.5388,9.74469,10.6873L12.3636,13.3069C12.4938,13.4371,12.7049,13.4371,12.835,13.3069L13.3069,12.8351C13.4371,12.7049,13.4371,12.4938,13.3069,12.3636ZM10.6667,6C10.6667,3.42133,8.57794,1.33334,5.99994,1.33334C3.42133,1.33334,1.33331,3.42133,1.33331,6C1.33331,8.578,3.42133,10.6667,5.99994,10.6667C7.21356,10.6686,8.37994,10.1961,9.24994,9.35001L9.35004,9.25C10.1961,8.37991,10.6685,7.21362,10.6667,6ZM8.33331,5.33334C8.5174,5.33334,8.66669,5.48257,8.66669,5.66666L8.66669,6.33334C8.66669,6.51743,8.5174,6.66666,8.33331,6.66666L3.66669,6.66666C3.4826,6.66666,3.33331,6.51743,3.33331,6.33334L3.33331,5.66666C3.33331,5.48257,3.4826,5.33334,3.66669,5.33334L8.33331,5.33334Z" fill-rule="evenodd" fill="#465A80" fill-opacity="1"/></g></svg>