<svg xmlns="http://www.w3.org/2000/svg" xmlns:xlink="http://www.w3.org/1999/xlink" fill="none" version="1.1" width="13.621203422546387" height="11.681913375854492" viewBox="0 0 13.621203422546387 11.681913375854492"><g><path d="M7,3L7,8C7,9.65685,8.34315,11,10,11C10.5405,11,11.0476,10.8571,11.4856,10.6069L12.5605,11.6819L13.6212,10.6213L12.5618,9.5619C12.8398,9.10694,13,8.57218,13,8L13,3C13,1.34315,11.6569,0,10,0C8.34315,0,7,1.34315,7,3ZM1.5,8.25L1.5,7.79547L0,7.79547L0,8.25Q0,9.38909,0.80542,10.1945Q1.61088,11,2.75,11L3.28821,11Q4.42733,11,5.23279,10.1945Q6.03821,9.38909,6.03821,8.25L6.03821,8.22345Q6.0382,7.43681,5.62219,6.76917Q5.20615,6.10153,4.48438,5.55176L2.19922,3.89862Q1.5,3.41479,1.5,2.77655L1.5,2.75Q1.5,2.23223,1.86609,1.86609Q2.23221,1.49997,2.75,1.5L3.28821,1.5Q3.806,1.49997,4.17212,1.86609Q4.53821,2.23223,4.53821,2.75L4.53821,3.20453L6.03821,3.20453L6.03821,2.75Q6.03825,1.61094,5.23279,0.805481Q4.4273,5.96046e-8,3.28821,0L2.75,0Q1.61091,0,0.80542,0.805481Q-0.000036478,1.61094,0,2.75L0,2.77655Q0,3.56319,0.416016,4.23083Q0.805433,4.75,1.53821,5.24512L3.83899,7.10138Q4.60156,7.73364,4.53821,8.22345L4.53821,8.25Q4.53824,8.7678,4.17212,9.13391Q3.80598,9.5,3.28821,9.5L2.75,9.5Q2.23223,9.5,1.86609,9.13391Q1.49997,8.7678,1.5,8.25ZM8.93934,9.06066Q8.5,8.62132,8.5,8L8.5,3Q8.5,2.37868,8.93934,1.93934Q9.37868,1.5,10,1.5Q10.6213,1.5,11.0607,1.93934Q11.5,2.37868,11.5,3L11.5,8Q11.5,8.62132,11.0607,9.06066Q10.6213,9.5,10,9.5Q9.37868,9.5,8.93934,9.06066Z" fill-rule="evenodd" fill="#1459FA" fill-opacity="1"/></g></svg>