<svg xmlns="http://www.w3.org/2000/svg" xmlns:xlink="http://www.w3.org/1999/xlink" fill="none" version="1.1" width="13.493075370788574" height="9.955204963684082" viewBox="0 0 13.493075370788574 9.955204963684082"><g><path d="M10.0799,0.334147L10.0799,1.29188C10.0799,1.47413,9.93213,1.62188,9.74988,1.62188L0.413208,1.62188C0.229113,1.62188,0.0798747,1.77112,0.0798747,1.95521L0.0798747,2.62188C0.0798747,2.80597,0.229113,2.95521,0.413208,2.95521L13.159,2.95521C13.1591,2.95521,13.159,2.95521,13.1592,2.95521C13.2996,2.95543,13.4251,2.86763,13.473,2.73565C13.521,2.60367,13.481,2.45581,13.3732,2.36588L10.6265,0.0772128C10.5271,-0.00561803,10.3887,-0.0233985,10.2715,0.0316062C10.1544,0.0866076,10.0797,0.204443,10.0799,0.333857C10.0799,0.334035,10.0799,0.333968,10.0799,0.334147M3.22154,9.9236C3.33868,9.8686,3.4134,9.75076,3.4132,9.62135C3.4132,9.62117,3.4132,9.62124,3.4132,9.62106L3.4132,8.66333C3.4132,8.48107,3.56095,8.33333,3.7432,8.33333L13.0799,8.33333C13.264,8.33333,13.4132,8.18409,13.4132,7.99999L13.4132,7.33333C13.4132,7.14923,13.264,6.99999,13.0799,6.99999L0.335123,6.99999C0.334732,6.99999,0.334594,6.99999,0.334203,6.99999C0.193801,6.99963,0.0682096,7.08729,0.0201481,7.21924C-0.0279514,7.35129,0.0119364,7.49932,0.11987,7.58933L2.86654,9.87799C2.96598,9.96082,3.10438,9.9786,3.22154,9.9236Z" fill-rule="evenodd" fill="#FF7734" fill-opacity="1"/></g></svg>